<?xml version="1.0" encoding="UTF-8"?>
<svg width="128" height="128" viewBox="0 0 128 128" xmlns="http://www.w3.org/2000/svg">
    <!-- Background circle -->
    <circle cx="64" cy="64" r="64" fill="#2196F3"/>
    
    <!-- Link chain icon -->
    <g transform="translate(32, 32)" fill="white">
        <!-- Top chain link -->
        <path d="
            M 32,12
            A 12,12 0 0,1 44,24
            L 44,40
            A 12,12 0 0,1 32,52
            A 12,12 0 0,1 20,40
            L 20,24
            A 12,12 0 0,1 32,12
            Z
            M 32,20
            A 4,4 0 0,0 28,24
            L 28,40
            A 4,4 0 0,0 32,44
            A 4,4 0 0,0 36,40
            L 36,24
            A 4,4 0 0,0 32,20
            Z"/>
        
        <!-- Bottom chain link -->
        <path d="
            M 32,44
            A 12,12 0 0,1 44,56
            L 44,72
            A 12,12 0 0,1 32,84
            A 12,12 0 0,1 20,72
            L 20,56
            A 12,12 0 0,1 32,44
            Z
            M 32,52
            A 4,4 0 0,0 28,56
            L 28,72
            A 4,4 0 0,0 32,76
            A 4,4 0 0,0 36,72
            L 36,56
            A 4,4 0 0,0 32,52
            Z"/>
    </g>
</svg> 